<svg xmlns="http://www.w3.org/2000/svg" viewBox="0 0 1364 960"><ellipse cx="706.902" cy="887.74" fill="#E9EBF7" rx="229.315" ry="33.58"/><path fill="#3A67B3" d="M673.523 769.107a.637.637 0 0 1-.136-.015s-1.743-.384-4.895-1.151a.625.625 0 0 1-.461-.758.626.626 0 0 1 .758-.461c3.13.761 4.864 1.142 4.868 1.143a.628.628 0 0 1-.134 1.242zM658.928 765.48a.606.606 0 0 1-.162-.021 608.442 608.442 0 0 1-9.704-2.669.63.63 0 0 1-.432-.776.632.632 0 0 1 .775-.433c3.292.935 6.549 1.832 9.683 2.664a.629.629 0 0 1-.16 1.235zm-19.338-5.499a.642.642 0 0 1-.182-.027 632.994 632.994 0 0 1-9.605-2.993.628.628 0 0 1 .383-1.196 582.524 582.524 0 0 0 9.585 2.988.629.629 0 0 1-.181 1.228zm-19.137-6.143a.647.647 0 0 1-.202-.033 574.035 574.035 0 0 1-9.494-3.322.628.628 0 0 1 .425-1.182 542.342 542.342 0 0 0 9.473 3.314.628.628 0 0 1-.202 1.223zm-18.901-6.81a.609.609 0 0 1-.224-.042 482.714 482.714 0 0 1-9.359-3.683.626.626 0 1 1 .471-1.162 496.087 496.087 0 0 0 9.335 3.673.628.628 0 0 1-.223 1.214zm-18.613-7.556a.622.622 0 0 1-.248-.051 412.446 412.446 0 0 1-9.186-4.099.628.628 0 0 1 .526-1.14 409.847 409.847 0 0 0 9.157 4.086.627.627 0 0 1-.249 1.204zm-18.228-8.42a.632.632 0 0 1-.278-.065 332.013 332.013 0 0 1-8.96-4.602.627.627 0 1 1 .591-1.108 328.098 328.098 0 0 0 8.926 4.585.627.627 0 0 1-.279 1.19zm-17.72-9.472a.618.618 0 0 1-.314-.085 250.751 250.751 0 0 1-8.609-5.214.627.627 0 1 1 .672-1.059 252.432 252.432 0 0 0 8.566 5.187.628.628 0 0 1-.315 1.171zm-16.942-10.764a.627.627 0 0 1-.36-.114 183.849 183.849 0 0 1-8.089-5.998.626.626 0 0 1-.105-.88.625.625 0 0 1 .881-.105 183.763 183.763 0 0 0 8.034 5.957.627.627 0 0 1-.361 1.14zM514.3 698.393a.623.623 0 0 1-.419-.161 128.247 128.247 0 0 1-7.236-7.013.627.627 0 1 1 .909-.865c2.209 2.324 4.62 4.66 7.165 6.945a.628.628 0 0 1-.419 1.094zm-13.757-14.555a.624.624 0 0 1-.495-.241 85.953 85.953 0 0 1-5.747-8.285.63.63 0 0 1 .211-.863.633.633 0 0 1 .862.211 84.282 84.282 0 0 0 5.662 8.165.627.627 0 0 1-.493 1.013zm-10.288-17.11a.628.628 0 0 1-.578-.381 61.484 61.484 0 0 1-3.197-9.575.629.629 0 0 1 .461-.759.631.631 0 0 1 .758.462 60.094 60.094 0 0 0 3.132 9.379.628.628 0 0 1-.576.874zm-4.652-19.335a.627.627 0 0 1-.626-.59 56.785 56.785 0 0 1 .299-10.122.62.62 0 0 1 .697-.549c.344.041.59.352.55.696a56.663 56.663 0 0 0-.391 6.603 54.204 54.204 0 0 0 .098 3.296.627.627 0 0 1-.589.664c-.013.002-.025.002-.038.002zm2.282-19.829a.627.627 0 0 1-.603-.801 74.116 74.116 0 0 1 3.454-9.498.629.629 0 0 1 1.148.507 72.744 72.744 0 0 0-3.395 9.336.628.628 0 0 1-.604.456zm8.083-18.24a.626.626 0 0 1-.527-.967c1.748-2.723 3.8-5.41 6.096-7.984a.629.629 0 0 1 .936.836c-2.252 2.525-4.263 5.158-5.976 7.827a.63.63 0 0 1-.529.288zm13.16-14.898a.628.628 0 0 1-.411-1.102 100.342 100.342 0 0 1 7.937-6.192.627.627 0 1 1 .723 1.025 99.151 99.151 0 0 0-7.838 6.116.625.625 0 0 1-.411.153zm16.308-11.587a.628.628 0 0 1-.321-1.167 158.541 158.541 0 0 1 8.826-4.847.628.628 0 1 1 .57 1.117 159.376 159.376 0 0 0-8.756 4.808c-.1.06-.21.089-.319.089zm17.846-9.149a.627.627 0 0 1-.257-1.2 242.358 242.358 0 0 1 9.272-3.911.627.627 0 0 1 .464 1.167 243.099 243.099 0 0 0-9.224 3.889.604.604 0 0 1-.255.055zm18.641-7.444a.628.628 0 0 1-.212-1.219 351.243 351.243 0 0 1 9.518-3.253.628.628 0 0 1 .39 1.194 348.852 348.852 0 0 0-9.485 3.241.642.642 0 0 1-.211.037zm19.088-6.238a.627.627 0 0 1-.179-1.229 472.415 472.415 0 0 1 9.664-2.776.628.628 0 0 1 .333 1.211 461.11 461.11 0 0 0-9.639 2.769.65.65 0 0 1-.179.025zm19.353-5.357a.627.627 0 0 1-.155-1.235 649.976 649.976 0 0 1 9.755-2.426.639.639 0 0 1 .757.463.628.628 0 0 1-.463.757c-3.284.789-6.53 1.597-9.736 2.421a.611.611 0 0 1-.158.02zm19.525-4.708a.628.628 0 0 1-.138-1.239 861.46 861.46 0 0 1 9.813-2.164.629.629 0 0 1 .263 1.228 868.644 868.644 0 0 0-9.799 2.16.657.657 0 0 1-.139.015zm19.635-4.22a.628.628 0 0 1-.125-1.243c3.262-.667 6.548-1.322 9.852-1.968a.622.622 0 0 1 .737.495.627.627 0 0 1-.495.735c-3.302.646-6.584 1.302-9.842 1.968a.56.56 0 0 1-.127.013zm19.709-3.859a.627.627 0 0 1-.115-1.244c3.277-.616 6.571-1.226 9.878-1.827a.627.627 0 0 1 .224 1.235c-3.304.602-6.595 1.209-9.87 1.825a.68.68 0 0 1-.117.011zm19.758-3.599a.628.628 0 0 1-.108-1.245c3.278-.58 6.566-1.153 9.861-1.725a.628.628 0 1 1 .215 1.238c-3.294.569-6.581 1.142-9.857 1.722a.533.533 0 0 1-.111.01zm19.748-3.415a.628.628 0 0 1-.104-1.246c3.302-.56 6.609-1.118 9.917-1.672a.628.628 0 0 1 .208 1.238c-3.307.554-6.612 1.112-9.914 1.672a.659.659 0 0 1-.107.008zm19.821-3.326a.627.627 0 0 1-.102-1.247l9.906-1.646a.627.627 0 1 1 .204 1.238l-9.905 1.646a.519.519 0 0 1-.103.009zm19.811-3.296a.627.627 0 0 1-.102-1.247c3.309-.552 6.61-1.104 9.902-1.66a.628.628 0 0 1 .208 1.238 5666 5666 0 0 1-9.905 1.66.519.519 0 0 1-.103.009zm19.803-3.339a.628.628 0 0 1-.106-1.246c3.312-.566 6.611-1.134 9.893-1.707a.618.618 0 0 1 .726.51.628.628 0 0 1-.51.726c-3.284.574-6.584 1.143-9.897 1.71a.755.755 0 0 1-.106.007zm19.784-3.457a.627.627 0 0 1-.11-1.245c3.313-.594 6.606-1.194 9.876-1.799a.627.627 0 1 1 .23 1.233c-3.273.608-6.568 1.207-9.884 1.802a.873.873 0 0 1-.112.009zm19.748-3.662a.627.627 0 0 1-.118-1.244c3.312-.637 6.595-1.283 9.848-1.939.338-.075.67.152.739.491s-.151.67-.491.739c-3.255.656-6.542 1.302-9.857 1.941a.644.644 0 0 1-.121.012zm19.687-3.973a.627.627 0 0 1-.129-1.242 808.899 808.899 0 0 0 9.803-2.14.619.619 0 0 1 .75.474.628.628 0 0 1-.474.75c-3.232.727-6.506 1.44-9.818 2.144a.674.674 0 0 1-.132.014zm19.592-4.417a.628.628 0 0 1-.146-1.237 565.565 565.565 0 0 0 9.733-2.427.628.628 0 0 1 .315 1.216 587.439 587.439 0 0 1-9.755 2.432.743.743 0 0 1-.147.016zm19.439-5.044a.627.627 0 0 1-.17-1.232 399.263 399.263 0 0 0 9.617-2.831.627.627 0 1 1 .37 1.199 403.527 403.527 0 0 1-9.647 2.841.622.622 0 0 1-.17.023zm19.181-5.935a.628.628 0 0 1-.204-1.221 262.042 262.042 0 0 0 9.412-3.417.627.627 0 1 1 .452 1.171 264.073 264.073 0 0 1-9.457 3.432.628.628 0 0 1-.203.035zm18.711-7.244a.627.627 0 0 1-.254-1.201 164.398 164.398 0 0 0 9.015-4.297.628.628 0 0 1 .576 1.116 164.798 164.798 0 0 1-9.085 4.329.62.62 0 0 1-.252.053zm17.761-9.245a.627.627 0 0 1-.333-1.159c2.94-1.832 5.677-3.741 8.135-5.674a.629.629 0 0 1 .776.988c-2.495 1.96-5.269 3.894-8.247 5.751a.632.632 0 0 1-.331.094zm15.556-12.392a.628.628 0 0 1-.457-1.057c2.335-2.477 4.35-5.067 5.988-7.7a.629.629 0 0 1 1.065.664c-1.682 2.703-3.747 5.359-6.14 7.896a.621.621 0 0 1-.456.197zm10.208-16.667a.627.627 0 0 1-.597-.82 37.635 37.635 0 0 0 1.747-9.585c.018-.347.306-.651.659-.594a.626.626 0 0 1 .594.658 38.939 38.939 0 0 1-1.805 9.906.63.63 0 0 1-.598.435zm1.113-19.72a.625.625 0 0 1-.616-.516 41.226 41.226 0 0 0-2.831-9.257.627.627 0 1 1 1.148-.507 42.525 42.525 0 0 1 2.917 9.54.63.63 0 0 1-.618.74zm-7.867-17.907a.624.624 0 0 1-.503-.253c-1.876-2.51-4.099-4.948-6.608-7.245a.628.628 0 0 1 .847-.926c2.567 2.351 4.843 4.846 6.766 7.421a.626.626 0 0 1-.502 1.003zm-14.532-13.496a.629.629 0 0 1-.352-.109c-2.593-1.763-5.46-3.483-8.52-5.113a.628.628 0 1 1 .59-1.108c3.101 1.652 6.006 3.396 8.637 5.184a.627.627 0 0 1-.355 1.146zm-17.62-9.477a.622.622 0 0 1-.248-.051 160.618 160.618 0 0 0-9.299-3.659.629.629 0 0 1-.379-.803.634.634 0 0 1 .803-.379 162.898 162.898 0 0 1 9.373 3.688.628.628 0 0 1-.25 1.204zm-18.866-6.823a.649.649 0 0 1-.183-.027 255.321 255.321 0 0 0-9.64-2.722.627.627 0 0 1-.448-.766.622.622 0 0 1 .767-.447c3.35.878 6.609 1.798 9.686 2.734a.628.628 0 0 1-.182 1.228zm-19.417-5.108a.614.614 0 0 1-.14-.016 390.512 390.512 0 0 0-9.805-2.096.629.629 0 0 1-.492-.739.621.621 0 0 1 .739-.491c3.391.682 6.7 1.389 9.837 2.103a.627.627 0 0 1-.139 1.239zm-19.689-3.963a.692.692 0 0 1-.11-.01 555.774 555.774 0 0 0-9.894-1.663.627.627 0 0 1 .197-1.24c3.418.544 6.755 1.106 9.916 1.668a.627.627 0 0 1-.109 1.245zm-19.835-3.163a.703.703 0 0 1-.09-.006 753.301 753.301 0 0 0-9.943-1.359.628.628 0 1 1 .163-1.246c3.355.439 6.676.891 9.958 1.362a.629.629 0 0 1 .533.711.63.63 0 0 1-.621.538zm-19.916-2.602a.473.473 0 0 1-.075-.005c-3.296-.392-6.621-.773-9.972-1.142a.628.628 0 0 1 .138-1.248c3.355.369 6.683.75 9.983 1.145a.627.627 0 0 1-.074 1.25zm-19.965-2.204a.458.458 0 0 1-.064-.004 1788.5 1788.5 0 0 0-9.99-.993.628.628 0 0 1-.564-.685.635.635 0 0 1 .685-.565c3.352.324 6.685.656 9.998.995a.628.628 0 0 1-.065 1.252zm-19.991-1.937-.058-.002c-3.32-.305-6.654-.604-10-.9a.628.628 0 0 1-.57-.68.64.64 0 0 1 .68-.57c3.347.295 6.683.594 10.004.9a.627.627 0 0 1-.056 1.252zm-20.006-1.77-.055-.002a5663.74 5663.74 0 0 0-9.988-.849.626.626 0 0 1-.572-.678.641.641 0 0 1 .678-.572c3.336.282 6.666.564 9.99.849a.626.626 0 0 1-.053 1.252zm-20.005-1.691-.053-.002-10.038-.844a.626.626 0 0 1-.572-.678.636.636 0 0 1 .678-.572l10.038.845a.626.626 0 0 1-.053 1.251zm-20.044-1.696-.055-.002c-3.341-.288-6.677-.579-10.004-.874a.627.627 0 0 1-.57-.68c.031-.347.328-.579.681-.57 3.327.295 6.662.586 10.001.874a.626.626 0 0 1-.053 1.252zm-20.005-1.781-.059-.002a2239.2 2239.2 0 0 1-10-.949.628.628 0 0 1 .121-1.25c3.319.322 6.652.639 9.995.949a.628.628 0 0 1-.057 1.252zm-19.988-1.953a.473.473 0 0 1-.065-.004 1405.8 1405.8 0 0 1-9.989-1.069.628.628 0 0 1 .138-1.248c3.307.367 6.635.722 9.981 1.069a.627.627 0 0 1-.065 1.252zm-19.961-2.218a.473.473 0 0 1-.075-.005 955.633 955.633 0 0 1-9.971-1.245.628.628 0 0 1-.541-.704.623.623 0 0 1 .704-.542c3.292.43 6.612.845 9.957 1.245a.627.627 0 0 1-.074 1.251zm-19.914-2.603a.677.677 0 0 1-.089-.006 712.307 712.307 0 0 1-9.94-1.492.628.628 0 0 1-.523-.718.633.633 0 0 1 .718-.522c3.272.516 6.58 1.012 9.922 1.489a.628.628 0 0 1-.088 1.249zm-19.835-3.136a.509.509 0 0 1-.109-.01 501.478 501.478 0 0 1-9.885-1.829.628.628 0 0 1 .24-1.231c3.169.619 6.487 1.233 9.862 1.824a.628.628 0 0 1-.108 1.246zm-19.705-3.864a.62.62 0 0 1-.135-.015 362.934 362.934 0 0 1-9.791-2.292.628.628 0 0 1 .304-1.218c3.146.785 6.429 1.553 9.757 2.285a.628.628 0 0 1-.135 1.24zm-19.473-4.876a.6.6 0 0 1-.172-.024 245.116 245.116 0 0 1-9.617-2.951.627.627 0 0 1 .393-1.191c3.029 1 6.248 1.988 9.568 2.937a.627.627 0 0 1-.172 1.229zm-19.039-6.313a.64.64 0 0 1-.226-.042 163.72 163.72 0 0 1-9.272-3.904.628.628 0 0 1 .523-1.14 162.224 162.224 0 0 0 9.2 3.872.628.628 0 0 1-.225 1.214zm-18.165-8.411a.63.63 0 0 1-.306-.08 100.234 100.234 0 0 1-8.527-5.322.629.629 0 0 1 .72-1.028 99.2 99.2 0 0 0 8.42 5.254.627.627 0 0 1-.307 1.176zm-16.264-11.491a.624.624 0 0 1-.423-.164c-2.553-2.33-4.858-4.791-6.852-7.315a.627.627 0 1 1 .984-.777c1.952 2.47 4.211 4.881 6.714 7.165a.626.626 0 0 1-.423 1.091zm-12.2-15.615a.628.628 0 0 1-.559-.341 47.83 47.83 0 0 1-.394-.784c-1.415-2.874-2.5-5.801-3.226-8.699a.627.627 0 1 1 1.217-.304c.705 2.81 1.759 5.654 3.135 8.448.126.255.254.51.385.765a.628.628 0 0 1-.558.915zm-4.681-19.281h-.017a.629.629 0 0 1-.611-.643c.086-3.307.628-6.657 1.611-9.957a.627.627 0 1 1 1.202.358c-.951 3.195-1.475 6.436-1.558 9.631a.628.628 0 0 1-.627.611zm5.486-18.955a.627.627 0 0 1-.548-.931c1.549-2.792 3.446-5.609 5.638-8.371a.627.627 0 1 1 .983.779c-2.149 2.71-4.008 5.469-5.524 8.2a.627.627 0 0 1-.549.323zm12.292-15.716a.627.627 0 0 1-.441-1.074 109.383 109.383 0 0 1 7.512-6.72.627.627 0 1 1 .794.971 108.121 108.121 0 0 0-7.425 6.644.629.629 0 0 1-.44.179zm15.464-12.735a.629.629 0 0 1-.362-1.141 172.244 172.244 0 0 1 8.404-5.544.626.626 0 1 1 .66 1.066 170.96 170.96 0 0 0-8.343 5.504.615.615 0 0 1-.359.115zm17.028-10.597a.627.627 0 0 1-.305-1.176 247.315 247.315 0 0 1 8.896-4.697.626.626 0 1 1 .564 1.12 243.923 243.923 0 0 0-8.85 4.675.647.647 0 0 1-.305.078zm17.919-9.031a.627.627 0 0 1-.263-1.197 324.644 324.644 0 0 1 9.203-4.051.627.627 0 1 1 .487 1.157 317.743 317.743 0 0 0-9.167 4.034.61.61 0 0 1-.26.057zm18.484-7.814a.629.629 0 0 1-.228-1.213 403.525 403.525 0 0 1 9.411-3.53.628.628 0 1 1 .425 1.182 396.509 396.509 0 0 0-9.381 3.518.602.602 0 0 1-.227.043zm18.874-6.823a.627.627 0 0 1-.2-1.222 464.801 464.801 0 0 1 9.561-3.092.628.628 0 0 1 .373 1.199c-3.209 1-6.417 2.037-9.536 3.083a.608.608 0 0 1-.198.032zm19.159-5.977a.629.629 0 0 1-.175-1.23 529.133 529.133 0 0 1 9.677-2.705.626.626 0 1 1 .327 1.21 526.58 526.58 0 0 0-9.654 2.7.622.622 0 0 1-.175.025zm19.377-5.228a.627.627 0 0 1-.152-1.237c3.24-.811 6.525-1.604 9.765-2.357a.628.628 0 0 1 .284 1.223 574.25 574.25 0 0 0-9.744 2.352.617.617 0 0 1-.153.019zm19.547-4.547a.628.628 0 0 1-.131-1.241 630.49 630.49 0 0 1 9.837-2.032.627.627 0 1 1 .244 1.231c-3.292.655-6.566 1.33-9.818 2.03a.841.841 0 0 1-.132.012zm19.687-3.904a.628.628 0 0 1-.111-1.246 647.668 647.668 0 0 1 9.895-1.721.618.618 0 0 1 .722.516.627.627 0 0 1-.516.722 655.59 655.59 0 0 0-9.877 1.718.548.548 0 0 1-.113.011zm19.772-3.282a.627.627 0 0 1-.092-1.247c3.301-.496 6.611-.968 9.929-1.416.351-.064.659.194.706.538a.627.627 0 0 1-.538.705c-3.311.447-6.615.919-9.91 1.413a.773.773 0 0 1-.095.007zm19.87-2.679a.627.627 0 0 1-.074-1.25 652.82 652.82 0 0 1 9.988-1.114.628.628 0 0 1 .13 1.248 678.06 678.06 0 0 0-9.97 1.112.917.917 0 0 1-.074.004zm19.983-2.072a.626.626 0 0 1-.054-1.252c3.348-.294 6.695-.561 10.039-.804a.622.622 0 0 1 .671.581.629.629 0 0 1-.58.672c-3.338.24-6.679.507-10.02.802l-.056.001zm20.044-1.444a.629.629 0 0 1-.035-1.254 619.67 619.67 0 0 1 10.033-.478c.33.004.639.256.651.603a.63.63 0 0 1-.602.652 605.383 605.383 0 0 0-10.047.477zm50.145-.616h-.022c-3.281-.113-6.65-.195-10.013-.244a.627.627 0 0 1-.618-.636c.005-.347.265-.585.637-.619 3.371.049 6.749.131 10.038.244a.627.627 0 0 1-.022 1.255zm-30.093-.166a.628.628 0 0 1-.014-1.255c3.369-.073 6.75-.118 10.05-.131h.002a.628.628 0 0 1 .003 1.255c-3.292.013-6.666.058-10.028.131h-.013zM820.741 169.126l-.043-.001a500.768 500.768 0 0 0-5.001-.31.627.627 0 0 1-.591-.662c.02-.347.315-.64.662-.591 1.677.096 3.349.199 5.014.31a.627.627 0 0 1-.041 1.254z"/><path fill="#30334D" d="M708.832 258.973c-1.84-6.459-6.719-11.604-12.901-14.133-3.483-1.424-7.293-2.098-11.05-1.904-.242.012-.245.384 0 .378 6.436-.164 12.87 2.069 17.457 6.673 4.409 4.425 6.658 10.991 5.876 17.191-.487 3.856-2.252 7.146-4.631 10.15-.142.179.076.408.254.254 5.178-4.485 6.825-12.188 4.995-18.609zM743.48 327.603a13.373 13.373 0 0 0-4.015-6.348c-.984-.868-2.125-1.496-3.183-2.263-1.23-.89-2.091-2.007-2.469-3.492-.781-3.066.36-6.208.477-9.285.099-2.6-.336-5.32-1.555-7.641-2.207-4.199-6.591-6.019-10.96-7.113-4.883-1.224-10.429-1.862-14.268-5.462-.157-.148-.371.073-.234.234 2.834 3.32 7.129 4.361 11.213 5.327 4.121.975 8.741 1.888 11.707 5.179 1.799 1.995 2.724 4.682 2.95 7.329.253 2.976-.619 5.824-.68 8.779-.054 2.623.74 5.072 2.873 6.705 1.052.804 2.246 1.403 3.286 2.223a11.259 11.259 0 0 1 2.518 2.825c1.596 2.519 2.263 5.584 1.704 8.526-.575 3.026-2.304 5.447-4.426 7.599-.185.187.05.496.281.364 4.478-2.566 6.129-8.736 4.781-13.486z"/><path fill="#30334D" d="M603.256 453.472c-19.052-16.532-18.517-42.448 9.082-65 34.898-30.222-7.264-58.901 31.669-95.668 5.335-11.955-3.274-29.312 7.99-38.806 5.715-4.53 14.183-3.49 20.511-7.114 7.608-6.204 18.766-5.99 27.34 2.438 7.584 7.457 7.671 22.366 5.371 27.943-3.69 8.95 17.435 10.877 21.572 19.704 5.234 11.172-3.243 18.066 6.932 25.044 22.082 15.143 3.234 16.565-8.618 41.801 10.442 40.019-10.087 19.801-16.377 50.475 7.974 23.307 22.669 42.179.463 60.719-19.128 21.529-28.285-18.463-53.028-15.705-30.929 3.446-44.593 1.384-52.907-5.831z"/><path fill="#F7C1CE" d="M680.842 716.335c5.758-1.994-13.845-37.778-6.75-38.101 2.577-.113 5.312-.302 8.203-.57 67.015-6.096 214.405-50.751 195.678-133.36-13.302-58.666-107.206-79.84-129.904-84.142l-1.195-.205-1.787-.323-1.243-.211-.708-.122-63.427 15.662c1.087 26.59 10.459 44.434 23.327 56.732 31.865 30.503 85.071 27.011 85.916 38.858 2.253 31.35-77.05 67.429-115.518 79.081 0 0-.288.031-.808.119-3.346.54-16.218 3.069-22.144 11.274-6.821 9.458 24.602 57.302 30.36 55.308z"/><path fill="#3A67B3" d="m672.627 649.755 9.669 27.909c67.015-6.096 214.405-50.751 195.678-133.36-13.302-58.666-107.206-79.84-129.904-84.142l-1.195-.205-1.787-.323-1.243-.211-.708-.122-40.1 72.394a78.018 78.018 0 0 0 8.344 6.931c32.006 23.087 76.793 21.066 77.572 31.927 2.253 31.35-77.05 67.429-115.518 79.081 0 .002-.288.032-.808.121z"/><path fill="#325899" d="m672.627 649.755 3.195 9.222c11.177-3.047 24.386-6.521 39.97-10.496 88.775-22.654 109.811-75.305 98.315-96.826-15.312-28.665-61.502-20.722-81.35-50.568 0 0-7.504 27.365-21.376 37.539 32.006 23.087 76.793 21.066 77.572 31.927 2.253 31.35-77.05 67.429-115.518 79.081 0 .002-.288.032-.808.121z"/><path fill="#F7C1CE" d="M660.345 858.432c2.593 8.281 30.828 55.005 39.254 49.515 8.419-5.51-14.382-46.083-13.387-53.749.56-4.28 1.962-8.048 3.092-10.55.903-1.966 1.624-3.134 1.624-3.134s30.287-34.406 56.065-75.399c14.968-23.776 28.421-49.803 33.55-72.557 14.313-63.689-37.406-233.257-37.406-233.257L690.514 472.3l-10.044 2.469-.76.194c-9.065 14.845-14.445 29.125-17.114 42.948-.123.639-.233 1.252-.356 1.891-11.612 65.989 38.267 120.73 43.43 170.282 4.307 41.518-34.97 144.38-34.97 144.38s-.209.256-.561.699c-.284.374-.669.853-1.12 1.468-1.75 2.373-4.546 6.418-6.549 10.645-1.888 3.959-3.081 8.066-2.125 11.156z"/><path fill="#3A67B3" d="m667.618 836.037 1.4.594 5.494 2.343 15.084 7.128c2.407-5.013 28.275-36.06 57.397-80.986 15.541-23.974 29.547-50.194 35.005-73.06 15.214-64.002-36.341-233.627-36.341-233.627l-55.452 13.84-9.676 2.411c-.014.028-.048.062-.06.089-9.401 14.937-15.007 29.296-17.874 43.142-.123.639-.233 1.252-.356 1.891-12.472 66.288 38.184 120.759 43.04 170.417 4.062 41.604-37.08 145.111-37.08 145.111s-.229.263-.581.707z"/><path fill="#325899" d="M674.512 838.974c13.481-30.514 55.563-112.076 54.445-139.307-1.739-42.316-41.099-106.644-47.944-151.576-4.438-29.135 14.769-75.229 14.769-75.229l-5.268-.562-.309-.031-9.676 2.411c-.014.028-.048.062-.06.089l-.76.194c-9.065 14.845-14.445 29.125-17.114 42.948-.123.639-.233 1.252-.356 1.891-12.472 66.288 38.184 120.759 43.04 170.417 4.062 41.604-37.08 145.111-37.08 145.111s-.23.262-.582.707l6.895 2.937z"/><path fill="#30334D" d="M658.929 654.145c-12.448 1.196-12.956 13.801-17 19.708a3.305 3.305 0 0 0-.295 3.245l2.742 5.985a3.3 3.3 0 0 0 2.894 1.925l.15.006a3.433 3.433 0 0 1 3.204 2.507c4.241 15.087 18.334 39.529 26.805 38.848 7.51-.604 2.548-23.1 2.548-23.1-12.734 1.144-16.393-17.901-21.048-49.124z"/><path fill="#F7C1CE" d="m681.583 307.246 4.564 24.385-10.09 6.389c-42.888-31.388-74.693-50.184-96.491-91.976-2.294-4.369-4.454-9.014-6.529-13.941-4.937-15.114-14.186-30.504-18.048-27.535-5.015 3.802 3.04 16.167-.552 14.721-9.411-3.789-19.635-24.494-24.73-17.617-7.999 10.798-.796 33.305 23.89 39.195 3.416.815 6.48 8.28 7.259 11.659 13.119 57.216 48.715 101.596 96.998 137.358l-.192.57s15.136 19.245 20.563 44.057c2.695 12.218 1.484 40.454 1.484 40.454l63.427-15.662s15.051-52.814 10.455-71.579c.213.019 47.263 1.345 78.826-16.589 20.493-11.667 27.814-72.043 27.814-72.043 16.467-13.73-1.768-25.411 4.832-28.609 7.702-3.732 12.082-6.386 12.038-8.253-.074-3.172-9.335-1.54-23.045 5.355-7.245 3.643-10.702 29.12-10.702 29.12s-10.867 28.321-26.906 36.151c-17.423 8.468-51.74 3.488-95.114 2.035l-11.053-3.883-7.096-21.796-21.602-1.966z"/><path fill="#FFBC47" d="M618.047 355.201c.972 1.018 1.957 2.007 2.949 3.017 11.181 11.275 23.527 21.801 36.859 31.665l-.192.57s15.136 19.245 20.563 44.057c1.745 7.887.253 24.447-1.007 35.188-.474 3.996 3.411 7.195 7.181 5.821 3.763-1.395 7.546-2.201 11.382-2.657 18.326-2.219 37.498 3.372 60.535-10.69 1.689-1.022 2.737-2.83 2.673-4.804-.253-11.664-1.458-53.567-5.399-69.645l.144.019c2.752.057 48.017.808 78.682-16.608.443-.246.859-.504 1.288-.79 19.419-12.444 26.889-48.883 28.192-64.137l-21.602-7.483c-2.419 7.194-7.809 26.3-23.847 34.13-17.423 8.468-51.74 3.488-95.114 2.035l-11.053-3.883-24.135.626-10.09 6.389c-42.888-31.388-74.693-50.184-96.491-91.976l-18.709 6.481c9.187 40.031 29.37 73.779 57.191 102.675z"/><path fill="#E39E24" d="m753.591 387.722.144.019c2.789.057 49.313.83 79.982-17.362-34.868 7.116-40.479 7.319-43.57 7.404-13.707-.036-28.758-3-41.754-10.397L736 360.331c15.166 16.481 17.591 27.391 17.591 27.391zM677.219 469.698c-.474 3.996 3.411 7.195 7.181 5.821 3.763-1.395 7.546-2.201 11.382-2.657 1.263-10.399 2.217-27.186-1.627-43.319-6.176-25.975-23.341-49.291-23.341-49.291l-49.818-22.034c11.181 11.275 23.527 21.801 36.859 31.665l-.192.57s15.136 19.245 20.563 44.057c1.745 7.887.253 24.447-1.007 35.188z"/><path fill="#30334D" d="M664.1 844.148c-9.915 6.906-6.256 14.156-9.185 20.687a3.304 3.304 0 0 0 .286 3.244l3.764 5.403a3.301 3.301 0 0 0 3.192 1.379l.148-.021c1.49-.22 2.94.542 3.599 1.896 6.858 14.093 25.076 35.634 33.291 33.457 7.282-1.931-1.603-23.184-1.603-23.184-12.327 3.392-23.354-12.965-33.492-42.861z"/><path fill="#F7C1CE" d="M687.665 257.092s-.626 27.981-14.287 33.676c0 0-7.512-7.035-11.282-1.953-3.772 5.082 5.485 13.79 5.485 13.79 11.315 11.944 47.489 18.675 45.822-4.52-1.84-25.577-25.738-40.993-25.738-40.993z"/><path fill="#30334D" d="M656.884 255.12c-.067 0-.067.104 0 .104s.067-.104 0-.104zM658.453 459.157c-2.962-.286-5.98-.065-8.941.17-2.934.234-5.838.591-8.754.992-5.679.781-11.387 1.548-17.129 1.566-5.439.017-10.978-.678-16.012-2.835-4.862-2.084-9.016-5.483-12.543-9.382-6.792-7.51-12.085-17.904-10.025-28.279 1.932-9.732 9.623-17.102 17.202-22.882 7.801-5.951 16.37-11.152 22.274-19.182a25.773 25.773 0 0 0 1.948-3.07c.114-.211-.185-.38-.318-.186-2.943 4.309-6.489 7.951-10.543 11.224-4.023 3.247-8.304 6.148-12.479 9.191-7.78 5.671-15.704 12.567-18.66 22.072-3.171 10.196.872 20.892 7.155 29.006 3.225 4.165 7.108 7.952 11.636 10.68 4.653 2.803 9.938 4.215 15.319 4.692 5.653.501 11.318-.02 16.922-.777 3.015-.408 6.017-.909 9.03-1.326 3.113-.431 6.226-.932 9.367-1.105 1.517-.083 3.034-.126 4.55-.209.234-.014.229-.338.001-.36z"/><path fill="#30334D" d="M671.498 247.7c-9.315-.188-20.41.691-26.698 8.558-3.026 3.787-3.878 8.598-3.398 13.336.546 5.394 2.48 10.587 2.754 16.009.147 2.909-.311 5.787-1.498 8.455a22.629 22.629 0 0 1-2.026 3.585c-.796 1.16-1.637 2.365-2.565 3.421-.259.295.146.71.435.434.853-.816 1.705-1.58 2.432-2.514a25.052 25.052 0 0 0 1.969-2.91c1.138-1.982 1.999-4.165 2.353-6.43.822-5.252-.823-10.508-1.877-15.605-1.014-4.906-1.73-10.37.677-14.998 2.03-3.903 5.759-6.658 9.78-8.271 5.626-2.256 11.708-2.276 17.661-2.672.253-.018.258-.393.001-.398z"/><path fill="#FCCACF" d="M984.532 542.62H851.524c-6.114 0-11.071-4.956-11.071-11.07v-59.792c0-6.114 4.956-11.071 11.071-11.071h133.008c6.114 0 11.071 4.957 11.071 11.071v59.792c0 6.114-4.957 11.07-11.071 11.07z"/><path fill="#FFF" d="M854.94 501.654a5.988 5.988 0 1 1 11.976 0 5.988 5.988 0 0 1-11.976 0zM878.802 501.654a5.988 5.988 0 1 1 11.976 0 5.988 5.988 0 0 1-11.976 0zM902.665 501.654a5.988 5.988 0 1 1 11.976 0 5.988 5.988 0 0 1-11.976 0zM926.527 501.654a5.988 5.988 0 1 1 11.976 0 5.988 5.988 0 0 1-11.976 0zM950.39 501.654a5.988 5.988 0 1 1 11.976 0 5.988 5.988 0 0 1-11.976 0zM974.252 501.654a5.988 5.988 0 1 1 11.976 0 5.988 5.988 0 0 1-11.976 0z"/><path fill="#C9E3FF" d="M969.169 293.294H836.16c-6.114 0-11.07-4.956-11.07-11.07v-59.792c0-6.114 4.956-11.07 11.07-11.07h133.008c6.114 0 11.07 4.956 11.07 11.07v59.792c.001 6.114-4.955 11.07-11.069 11.07z"/><path fill="#FFF" d="m832.723 253.774 7.199-.451c.156 1.169.474 2.06.953 2.672.779.991 1.893 1.487 3.341 1.487 1.08 0 1.912-.253 2.497-.76s.878-1.094.878-1.763c0-.635-.279-1.203-.836-1.704-.557-.501-1.848-.975-3.875-1.42-3.319-.746-5.685-1.737-7.099-2.973-1.425-1.236-2.138-2.812-2.138-4.727 0-1.258.365-2.447 1.094-3.566.73-1.119 1.826-1.999 3.291-2.639 1.464-.64 3.472-.961 6.022-.961 3.129 0 5.515.582 7.157 1.746 1.642 1.164 2.62 3.015 2.932 5.554l-7.133.417c-.19-1.102-.588-1.904-1.194-2.405-.607-.501-1.445-.752-2.514-.752-.879 0-1.542.187-1.988.56-.445.373-.668.827-.668 1.361 0 .389.184.741.551 1.052.357.323 1.203.624 2.539.902 3.307.713 5.676 1.433 7.108 2.163 1.43.73 2.472 1.634 3.124 2.714.651 1.081.977 2.289.977 3.625 0 1.57-.435 3.018-1.303 4.343-.869 1.325-2.082 2.33-3.642 3.016-1.559.685-3.524 1.027-5.896 1.027-4.165 0-7.049-.802-8.653-2.405-1.605-1.603-2.513-3.64-2.724-6.113zM858.547 237.388h6.799v4.627h-6.799v-4.627zm0 6.748h6.799v17.739h-6.799v-17.739zM882.033 244.136h6.364v16.754l.017.785a7.403 7.403 0 0 1-.71 3.182c-.474 1.008-1.102 1.824-1.887 2.447-.786.624-1.782 1.075-2.99 1.353-1.208.278-2.592.418-4.151.418-3.564 0-6.01-.535-7.341-1.604-1.331-1.069-1.997-2.5-1.997-4.293 0-.223.012-.524.033-.902l6.599.752c.167.612.423 1.036.768 1.27.501.345 1.13.517 1.887.517.98 0 1.713-.262 2.197-.785.485-.523.726-1.437.726-2.739v-2.69c-.668.791-1.336 1.364-2.004 1.72a7.107 7.107 0 0 1-3.391.836c-2.372 0-4.287-1.036-5.746-3.107-1.036-1.469-1.554-3.413-1.554-5.829 0-2.762.668-4.866 2.004-6.314 1.336-1.447 3.084-2.171 5.245-2.171 1.381 0 2.52.234 3.416.702.897.467 1.734 1.242 2.514 2.322v-2.624zm-6.398 8.603c0 1.281.273 2.23.818 2.848.546.618 1.264.927 2.155.927.846 0 1.556-.32 2.13-.96.573-.64.86-1.606.86-2.898 0-1.291-.3-2.28-.902-2.965-.601-.685-1.336-1.027-2.205-1.027s-1.561.315-2.08.944c-.517.628-.776 1.672-.776 3.131zM892.505 244.136h6.331v2.89c.947-1.18 1.905-2.024 2.873-2.53.969-.507 2.149-.76 3.541-.76 1.882 0 3.354.56 4.418 1.679 1.063 1.119 1.595 2.848 1.595 5.186v11.275h-6.832v-9.755c0-1.113-.206-1.902-.618-2.364-.412-.462-.991-.693-1.737-.693-.825 0-1.493.312-2.005.935-.512.624-.768 1.743-.768 3.357v8.519h-6.798v-17.739zM943.118 237.388h7.551v14.59c0 1.446-.226 2.812-.677 4.098a8.859 8.859 0 0 1-2.121 3.372c-.963.963-1.974 1.639-3.032 2.028-1.47.545-3.235.818-5.295.818-1.192 0-2.492-.084-3.901-.251-1.409-.167-2.586-.498-3.533-.993-.946-.495-1.812-1.199-2.597-2.112-.786-.912-1.323-1.853-1.612-2.821-.467-1.558-.701-2.938-.701-4.14v-14.59h7.55v14.937c0 1.335.37 2.379 1.111 3.129.741.752 1.768 1.127 3.082 1.127 1.303 0 2.324-.37 3.065-1.11.741-.74 1.111-1.788 1.111-3.146v-14.936zM955.262 268.624v-24.488h6.364v2.623c.88-1.102 1.687-1.849 2.422-2.238.991-.523 2.088-.786 3.291-.786 2.372 0 4.207.908 5.504 2.723 1.297 1.815 1.946 4.059 1.946 6.732 0 2.951-.708 5.203-2.122 6.757-1.414 1.553-3.201 2.33-5.362 2.33-1.047 0-2.002-.179-2.864-.535a6.811 6.811 0 0 1-2.314-1.587v8.469h-6.865zm6.815-15.568c0 1.403.295 2.445.885 3.124.59.679 1.336 1.019 2.238 1.019.791 0 1.453-.326 1.988-.977.535-.651.802-1.756.802-3.316 0-1.437-.279-2.492-.836-3.165-.557-.674-1.235-1.01-2.038-1.01-.869 0-1.592.339-2.172 1.019-.578.678-.867 1.781-.867 3.306z"/><path fill="#C9E3FF" d="M587.731 231.667H454.723c-6.114 0-11.07-4.956-11.07-11.07v-59.792c0-6.114 4.956-11.07 11.07-11.07h133.008c6.114 0 11.07 4.956 11.07 11.07v59.792c.001 6.113-4.956 11.07-11.07 11.07z"/><path fill="#FFF" d="M540.013 169.802h-20.137c-.436 0-.789-.671-.789-1.499 0-.828.353-1.499.789-1.499h20.137c.436 0 .789.671.789 1.499 0 .828-.353 1.499-.789 1.499zM575.581 169.802h-31.198c-.436 0-.789-.671-.789-1.499 0-.828.353-1.499.789-1.499h31.198c.436 0 .789.671.789 1.499 0 .828-.353 1.499-.789 1.499zM587.257 169.802h-6.547c-.379 0-.687-.584-.687-1.304 0-.72.308-1.304.687-1.304h6.547c.379 0 .687.584.687 1.304-.001.721-.308 1.304-.687 1.304zM587.154 185.288h-67.278c-.436 0-.789-.671-.789-1.498 0-.828.353-1.499.789-1.499h67.278c.436 0 .789.671.789 1.499 0 .827-.353 1.498-.789 1.498zM540.013 214.595h-20.137c-.436 0-.789-.671-.789-1.498 0-.828.353-1.498.789-1.498h20.137c.436 0 .789.671.789 1.499 0 .826-.353 1.497-.789 1.497zM575.581 214.595h-31.198c-.436 0-.789-.671-.789-1.499 0-.828.353-1.498.789-1.498h31.198c.436 0 .789.671.789 1.498 0 .828-.353 1.499-.789 1.499zM553.355 199.109h-33.478c-.436 0-.789-.671-.789-1.499 0-.828.353-1.499.789-1.499h33.478c.436 0 .789.671.789 1.499 0 .828-.353 1.499-.789 1.499zM587.154 199.109h-25.777c-.436 0-.789-.671-.789-1.499 0-.828.353-1.499.789-1.499h25.777c.436 0 .789.671.789 1.499 0 .828-.353 1.499-.789 1.499zM587.257 214.595h-6.547c-.379 0-.687-.584-.687-1.304 0-.72.308-1.304.687-1.304h6.547c.379 0 .687.584.687 1.304-.001.72-.308 1.304-.687 1.304z"/><circle cx="482.178" cy="189.485" r="29.304" fill="#FFF" transform="rotate(-80.613 482.172 189.49)"/><circle cx="481.742" cy="181.196" r="11.376" fill="#C9E3FF" transform="rotate(-67.5 481.733 181.19)"/><path fill="#C9E3FF" d="M492.176 192.664a2.476 2.476 0 0 0-3.095.044 11.34 11.34 0 0 1-7.191 2.56 11.29 11.29 0 0 1-6.998-2.412 2.449 2.449 0 0 0-3.104.054c-2.295 1.968-3.693 4.806-3.693 8.495v.333a3.454 3.454 0 0 0 3.454 3.454h21.259a3.453 3.453 0 0 0 3.454-3.454v-.333c0-3.847-1.561-6.769-4.086-8.741zM528.067 616.921H381.132c-7.033 0-12.735-5.702-12.735-12.735v-59.267c0-7.033 5.702-12.735 12.735-12.735h146.935c7.033 0 12.735 5.702 12.735 12.735v59.267c0 7.033-5.701 12.735-12.735 12.735z"/><path fill="#FFF" d="M496.233 569.005H389.8a5.479 5.479 0 0 1-5.479-5.479v-1.301a5.478 5.478 0 0 1 5.479-5.478h106.434a5.478 5.478 0 0 1 5.478 5.478v1.301a5.478 5.478 0 0 1-5.479 5.479zM496.233 597.219H390.121a5.478 5.478 0 0 1-5.478-5.479v-1.301a5.478 5.478 0 0 1 5.478-5.478h106.112a5.478 5.478 0 0 1 5.478 5.478v1.301a5.477 5.477 0 0 1-5.478 5.479zM525.419 569.005h-12.003a5.478 5.478 0 0 1-5.478-5.479v-1.301a5.478 5.478 0 0 1 5.478-5.478h12.003a5.479 5.479 0 0 1 5.479 5.478v1.301a5.478 5.478 0 0 1-5.479 5.479zM525.419 597.219h-12.003a5.478 5.478 0 0 1-5.478-5.479v-1.301a5.479 5.479 0 0 1 5.478-5.479h12.003a5.479 5.479 0 0 1 5.479 5.479v1.301a5.479 5.479 0 0 1-5.479 5.479z"/><path fill="#C9E3FF" d="m395.623 587.259.357 2.506a.2.2 0 0 0 .266.159l2.376-.874c.213-.078.37.204.192.344l-1.992 1.562a.2.2 0 0 0-.005.31l1.945 1.621c.174.145.009.423-.202.338l-2.349-.944a.2.2 0 0 0-.271.151l-.431 2.495c-.039.224-.362.219-.394-.006l-.357-2.506a.199.199 0 0 0-.266-.159l-2.376.874c-.213.078-.37-.204-.192-.344l1.992-1.562a.2.2 0 0 0 .005-.31l-1.945-1.621c-.174-.145-.009-.423.202-.338l2.349.944a.2.2 0 0 0 .271-.151l.431-2.495c.039-.224.362-.219.394.006zM406.818 587.259l.357 2.506a.2.2 0 0 0 .266.159l2.376-.874c.213-.078.37.204.192.344l-1.992 1.562a.2.2 0 0 0-.005.31l1.945 1.621c.174.145.009.423-.202.338l-2.349-.944a.2.2 0 0 0-.271.151l-.431 2.495c-.039.224-.362.219-.394-.006l-.357-2.506a.199.199 0 0 0-.266-.159l-2.376.874c-.213.078-.37-.204-.192-.344l1.992-1.562a.2.2 0 0 0 .005-.31l-1.945-1.621c-.174-.145-.009-.423.202-.338l2.349.944a.2.2 0 0 0 .271-.151l.431-2.495c.039-.224.362-.219.394.006zM418.013 587.259l.357 2.506a.2.2 0 0 0 .266.159l2.376-.874c.213-.078.37.204.192.344l-1.992 1.562a.2.2 0 0 0-.005.31l1.945 1.621c.174.145.009.423-.202.338l-2.349-.944a.2.2 0 0 0-.271.151l-.431 2.495c-.039.224-.362.219-.394-.006l-.357-2.506a.199.199 0 0 0-.266-.159l-2.376.874c-.213.078-.37-.204-.192-.344l1.992-1.562a.2.2 0 0 0 .005-.31l-1.945-1.621c-.174-.145-.009-.423.202-.338l2.349.944a.2.2 0 0 0 .271-.151l.431-2.495c.039-.224.362-.219.394.006zM429.207 587.259l.357 2.506a.2.2 0 0 0 .266.159l2.376-.874c.213-.078.37.204.192.344l-1.992 1.562a.2.2 0 0 0-.005.31l1.945 1.621c.174.145.009.423-.202.338l-2.349-.944a.2.2 0 0 0-.271.151l-.431 2.495c-.039.224-.362.219-.394-.006l-.357-2.506a.199.199 0 0 0-.266-.159l-2.376.874c-.213.078-.37-.204-.192-.344l1.992-1.562a.2.2 0 0 0 .005-.31l-1.945-1.621c-.174-.145-.009-.423.202-.338l2.349.944a.2.2 0 0 0 .271-.151l.431-2.495c.039-.224.362-.219.394.006zM440.402 587.259l.357 2.506a.2.2 0 0 0 .266.159l2.376-.874c.213-.078.37.204.192.344l-1.992 1.562a.2.2 0 0 0-.005.31l1.945 1.621c.174.145.009.423-.202.338l-2.349-.944a.2.2 0 0 0-.271.151l-.431 2.495c-.039.224-.362.219-.394-.006l-.357-2.506a.199.199 0 0 0-.266-.159l-2.376.874c-.213.078-.37-.204-.192-.344l1.992-1.562a.2.2 0 0 0 .005-.31l-1.945-1.621c-.174-.145-.009-.423.202-.338l2.349.944a.2.2 0 0 0 .271-.151l.431-2.495c.039-.224.362-.219.394.006zM393.049 562.876a1.437 1.437 0 1 1 2.875 0 1.437 1.437 0 0 1-2.875 0zM397.69 562.876a1.437 1.437 0 1 1 2.875 0 1.437 1.437 0 0 1-2.875 0zM402.332 562.876a1.437 1.437 0 1 1 2.873 0 1.437 1.437 0 0 1-2.873 0zM406.974 562.876a1.437 1.437 0 1 1 2.874 0 1.437 1.437 0 0 1-2.874 0zM411.615 562.876a1.437 1.437 0 1 1 2.874 0 1.437 1.437 0 0 1-2.874 0zM416.257 562.876a1.437 1.437 0 1 1 2.875 0 1.437 1.437 0 0 1-2.875 0zM420.899 562.876a1.437 1.437 0 1 1 2.873 0 1.437 1.437 0 0 1-2.873 0zM425.54 562.876a1.437 1.437 0 1 1 2.874 0 1.437 1.437 0 0 1-2.874 0z"/><path fill="#FCCACF" d="M837.459 130.319H704.451c-6.114 0-11.07-4.956-11.07-11.07V59.457c0-6.114 4.956-11.07 11.07-11.07h133.008c6.114 0 11.07 4.956 11.07 11.07v59.792c0 6.114-4.956 11.07-11.07 11.07z"/><path fill="#FFF" d="M746.643 68.455H708.4a1.499 1.499 0 1 1 0-2.998h38.243a1.499 1.499 0 1 1 0 2.998zM814.193 68.455h-59.251a1.499 1.499 0 1 1 0-2.998h59.251a1.5 1.5 0 0 1 0 2.998zM836.367 68.455h-12.433a1.304 1.304 0 0 1 0-2.608h12.433a1.304 1.304 0 0 1 0 2.608zM836.172 83.941H708.4a1.499 1.499 0 1 1 0-2.997h127.772a1.499 1.499 0 1 1 0 2.997zM746.643 113.248H708.4a1.498 1.498 0 1 1 0-2.996h38.243a1.498 1.498 0 1 1 0 2.996zM814.193 113.248h-59.251a1.498 1.498 0 1 1 0-2.997h59.251c.828 0 1.499.671 1.499 1.498a1.5 1.5 0 0 1-1.499 1.499zM771.981 97.762H708.4a1.499 1.499 0 1 1 0-2.998h63.581a1.499 1.499 0 1 1 0 2.998zM836.172 97.762h-48.955a1.499 1.499 0 1 1 0-2.998h48.955a1.499 1.499 0 1 1 0 2.998zM836.367 113.248h-12.433a1.304 1.304 0 0 1 0-2.608h12.433a1.304 1.304 0 0 1 0 2.608z"/><path fill="#2A66A8" d="m835.838 171.481 32.366 3.65-8.907-16.969z"/><path fill="#5C96D6" d="m865.398 180.197 42.94-10.253-52.305-5.1zM908.381 169.895l-63.577-33.613 8.502 15.557z"/><path fill="#3E7ABD" d="m908.338 169.944-52.424-4.965-20.076 6.502 17.479-19.882z"/><path fill="#D94559" d="M469.811 716.164c.349.564.461 1.244.297 1.914a2.493 2.493 0 0 1-1.74 1.819l-8.432 2.459a2.49 2.49 0 0 1-2.445-.598 2.494 2.494 0 0 1-.704-2.416l2.086-8.532a2.49 2.49 0 0 1 1.74-1.818 2.49 2.49 0 0 1 2.444.598l6.346 6.073c.16.152.296.321.408.501zm-11.035 4.052a.522.522 0 0 0 .605.235l8.432-2.459a.524.524 0 0 0 .368-.385.522.522 0 0 0-.149-.511l-6.346-6.073a.523.523 0 0 0-.517-.127.523.523 0 0 0-.368.385l-2.086 8.532a.511.511 0 0 0 .061.403zM993.347 396.221c.349.564.461 1.244.297 1.914a2.493 2.493 0 0 1-1.74 1.819l-8.432 2.459a2.49 2.49 0 0 1-2.445-.598 2.494 2.494 0 0 1-.704-2.416l2.086-8.532a2.49 2.49 0 0 1 1.74-1.818 2.49 2.49 0 0 1 2.444.598l6.346 6.073c.16.152.296.321.408.501zm-11.035 4.052a.522.522 0 0 0 .605.235l8.432-2.459a.524.524 0 0 0 .368-.385.522.522 0 0 0-.149-.511l-6.346-6.073a.522.522 0 0 0-.517-.126.523.523 0 0 0-.368.384l-2.086 8.532a.51.51 0 0 0 .061.403z"/><path fill="#FFB86B" d="m578.919 640.766 3.102-3.102a1.803 1.803 0 0 0-2.549-2.55l-3.102 3.102-3.102-3.102a1.802 1.802 0 1 0-2.549 2.55l3.102 3.102-3.096 3.096a1.802 1.802 0 1 0 2.55 2.549l3.096-3.096 3.096 3.096c.352.352.813.528 1.275.528s.923-.176 1.275-.528a1.802 1.802 0 0 0 0-2.549l-3.098-3.096zM649.828 113.25l3.102-3.102a1.802 1.802 0 1 0-2.549-2.549l-3.102 3.102-3.102-3.102a1.802 1.802 0 1 0-2.549 2.549l3.102 3.102-3.096 3.096a1.802 1.802 0 1 0 2.55 2.549l3.096-3.096 3.096 3.096c.352.352.813.528 1.275.528s.923-.176 1.275-.528a1.802 1.802 0 0 0 0-2.549l-3.098-3.096z"/><path fill="#2363A8" d="M452.733 402.815a7.092 7.092 0 0 1-7.084-7.084 7.092 7.092 0 0 1 7.084-7.084 7.092 7.092 0 0 1 7.084 7.084 7.092 7.092 0 0 1-7.084 7.084zm0-11.952c-2.684 0-4.867 2.184-4.867 4.867s2.184 4.867 4.867 4.867c2.684 0 4.867-2.184 4.867-4.867s-2.184-4.867-4.867-4.867zM962.077 647.848a7.092 7.092 0 0 1-7.084-7.084 7.092 7.092 0 0 1 7.084-7.084 7.092 7.092 0 0 1 7.084 7.084 7.092 7.092 0 0 1-7.084 7.084zm0-11.952a4.873 4.873 0 0 0-4.867 4.867c0 2.684 2.184 4.867 4.867 4.867s4.867-2.184 4.867-4.867a4.873 4.873 0 0 0-4.867-4.867z"/><path fill="#C9E3FF" d="M479.617 518.529c-2.723-.948-6.006-.489-8.849-.48-2.912.009-5.824.01-8.737.015-5.925.01-11.849.028-17.774.048-11.946.04-23.904-.068-35.849.127-3.312.054-6.631.109-9.941.234-1.606.061-3.216.13-4.82.227-1.653.099-3.432.114-5.012.635a.73.73 0 0 0 0 1.394c2.665.88 5.844.675 8.627.806 2.91.137 5.824.17 8.736.236 5.923.135 11.85.093 17.774.112 11.95.041 23.899.093 35.849.113l9.942.018c3.193.005 7 .585 10.054-.478a1.574 1.574 0 0 0 0-3.007zM509.317 519.23a149.547 149.547 0 0 0-9.398-.306c-1.504.003-3.034-.042-4.531.105-.815.08-1.646.161-2.446.334-.676.147-1.438.255-1.889.824-.25.317-.276.685 0 1.002.48.551 1.206.623 1.889.747.808.147 1.628.219 2.446.29 1.503.13 3.024.119 4.531.191 3.138.152 6.271.363 9.398.669 1.038.101 1.928-.959 1.928-1.928 0-1.097-.884-1.864-1.928-1.928z"/><path fill="#FCCACF" d="M970.147 551.381c-1.367-.574-2.465-.799-3.961-.792-1.4.007-2.799.084-4.199.105-2.798.041-5.599.02-8.398.029l-16.495.056c-5.499.018-10.997.054-16.495.112-5.43.056-11.115-.263-16.455.859-.933.196-.933 1.69 0 1.887 5.342 1.122 11.023.803 16.455.859 5.499.057 10.997.093 16.495.112l16.495.056c2.799.009 5.599-.014 8.398.029 1.399.021 2.799.098 4.199.104 1.515.006 2.588-.216 3.961-.792 1.282-.538 1.285-2.085 0-2.624zM993.358 550.746c-.71-.227-1.314-.034-2.014.054-.503.064-1.018.076-1.524.113l-3.43.253c-2.257.167-4.439.602-6.655 1.04-.62.122-.652 1.191 0 1.285 2.22.321 4.409.662 6.655.714l3.303.077c.549.013 1.102.011 1.651.039.69.035 1.34.23 2.014-.022.77-.288 1.353-.914 1.353-1.777-.001-.83-.578-1.528-1.353-1.776z"/><path fill="#C9E3FF" d="m994.546 253.133-.032-13.584c-.01-4.428-.04-8.854-.115-13.282-.037-2.204-.089-4.442-.263-6.641-.081-1.021-.257-3.927-1.941-3.62-1.617.295-1.569 3.007-1.636 4.223-.123 2.21-.215 4.428-.245 6.641-.06 4.428-.098 8.854-.108 13.282l-.031 13.282c-.005 2.115-.037 4.227.071 6.339.107 2.073-.001 4.527.952 6.415.443.879 1.882.879 2.326 0 .95-1.883.845-4.346.952-6.415.113-2.212.075-4.425.07-6.64zM994.861 281.42c-.062-1.216-.131-2.429-.286-3.636-.148-1.151-.124-2.884-1.079-3.705-.497-.428-1.343-.56-1.824 0-.868 1.009-.69 2.451-.725 3.705-.034 1.212-.022 2.424-.044 3.636-.044 2.425-.187 4.851-.219 7.274-.015 1.119.962 2.07 2.071 2.07 1.201 0 1.973-.952 2.071-2.07.208-2.393.157-4.876.035-7.274zM562.338 136.538c-5.261-.828-10.457-.741-15.774-.707l-16.319.105c-10.679.069-21.356.13-32.033.304-5.965.098-12.14-.033-18.056.79-.812.113-.813 1.527 0 1.64 5.121.712 10.473.666 15.638.75 5.44.089 10.879.192 16.319.227l32.033.206c6.106.04 12.148.26 18.192-.691 1.299-.204 1.3-2.42 0-2.624zM591.844 137.018c-1.69-.316-3.513-.182-5.231-.213l-5.094-.091c-1.692-.03-3.402-.131-5.094-.053-.849.04-1.701.132-2.547.215-.768.075-1.293.187-1.777.819-.162.213-.136.586 0 .802.426.675 1.053.797 1.792.92.842.141 1.683.304 2.531.404 1.628.191 3.277.242 4.912.343l4.911.304c1.648.102 3.453.427 5.094.254.932-.098 1.734-.641 1.852-1.634.104-.862-.414-1.895-1.349-2.07z"/><path fill="#FCCACF" d="m680.605 90.085-.08-11.341c-.051-7.253.349-14.84-1.068-21.976-.134-.676-1.233-.677-1.367 0-1.417 7.135-1.016 14.723-1.068 21.976l-.078 11.043c-.026 3.755-.19 7.374.845 11.016.276.971 1.692.972 1.968 0 1.01-3.548.874-7.06.848-10.718zM680.644 117.033a70.112 70.112 0 0 0-.247-3.577c-.077-.822-.227-2.86-1.561-2.561-1.2.269-1.153 1.997-1.241 2.945a68.573 68.573 0 0 0-.222 3.449c-.098 2.34-.246 4.685-.267 7.026-.022 2.455 3.837 2.459 3.815 0-.021-2.428-.175-4.858-.277-7.282z"/><circle cx="551.439" cy="501.654" r="10.636" fill="#C9E3FF"/><path fill="#C9E3FF" d="M529.564 463.654a5.087 5.087 0 1 1 10.174 0 5.087 5.087 0 0 1-10.174 0zM387.962 647.848a5.087 5.087 0 1 1 10.174 0 5.087 5.087 0 0 1-10.174 0zM625.598 611.834a5.087 5.087 0 1 1 10.174 0 5.087 5.087 0 0 1-10.174 0z"/><circle cx="883.888" cy="437.041" r="9.653" fill="#FCCACF"/><circle cx="757.794" cy="198.667" r="9.653" fill="#FCCACF"/><circle cx="854.94" cy="418.474" r="4.853" fill="#FCCACF"/><path fill="#FCCACF" d="M714.563 155.262a4.853 4.853 0 1 1 9.707 0 4.853 4.853 0 0 1-9.707 0z"/><circle cx="867.655" cy="43.533" r="4.853" fill="#FCCACF"/><path fill="#FCCACF" d="M909.787 584.961a4.853 4.853 0 1 1 9.707 0 4.853 4.853 0 0 1-9.707 0z"/><circle cx="528.543" cy="282.523" r="11.195" fill="#C9E3FF" transform="rotate(-76.714 528.59 282.528)"/><path fill="#C9E3FF" d="M917.031 327.666a7.63 7.63 0 1 1 15.259.001 7.63 7.63 0 0 1-15.259-.001z"/><circle cx="459.817" cy="256.666" r="6.278" fill="#C9E3FF"/><path fill="#C9E3FF" d="M952.931 316.987a4.278 4.278 0 1 1 8.555 0 4.278 4.278 0 0 1-8.555 0z"/><circle cx="619.32" cy="161.54" r="6.278" fill="#C9E3FF"/></svg>